<svg width="16" height="10" viewBox="0 0 16 10" fill="none" xmlns="http://www.w3.org/2000/svg">
<path d="M11.6827 7.47102C11.3147 7.47102 11.016 7.14048 11.016 6.73229C11.016 6.3241 11.314 5.99282 11.682 5.99282C12.05 5.99282 12.3487 6.32336 12.3487 6.73155C12.3487 7.13974 12.0507 7.47028 11.6827 7.47102ZM4.31867 7.47102C3.95067 7.47102 3.652 7.14048 3.652 6.73229C3.652 6.3241 3.95 5.99282 4.318 5.99282C4.686 5.99282 4.98467 6.32336 4.98467 6.73155C4.98467 7.13974 4.68667 7.47028 4.31867 7.47102ZM11.9213 3.01942L13.2527 0.461602C13.3293 0.314447 13.284 0.126623 13.1513 0.0415838C13.0187 -0.043455 12.8493 0.00682881 12.7727 0.153983L11.4247 2.74434C10.394 2.22228 9.236 1.93166 8.00067 1.93166C6.76533 1.93166 5.60733 2.22228 4.576 2.7436L3.228 0.153983C3.15133 0.00682881 2.982 -0.0434549 2.84933 0.0408444C2.71733 0.125883 2.67133 0.313708 2.748 0.460862L4.07933 3.01942C1.79267 4.39853 0.229333 6.96596 0 10H16C15.7713 6.96596 14.208 4.39853 11.9213 3.01942Z" fill="white"/>
</svg>
