<svg width="20" height="19" viewBox="0 0 20 19" fill="none" xmlns="http://www.w3.org/2000/svg">
<path d="M1.6665 6.9811C1.6665 6.68916 1.6665 6.5432 1.67869 6.42026C1.79617 5.23447 2.73423 4.29641 3.92001 4.17893C4.04295 4.16675 4.1968 4.16675 4.50449 4.16675C4.62305 4.16675 4.68233 4.16675 4.73266 4.1637C5.37535 4.12477 5.93813 3.71915 6.17829 3.12175C6.1971 3.07496 6.21468 3.02222 6.24984 2.91675C6.285 2.81127 6.30258 2.75853 6.32139 2.71175C6.56155 2.11435 7.12433 1.70872 7.76701 1.6698C7.81735 1.66675 7.87294 1.66675 7.98412 1.66675H12.0156C12.1268 1.66675 12.1823 1.66675 12.2327 1.6698C12.8753 1.70872 13.4382 2.11435 13.6783 2.71175C13.6971 2.75853 13.7147 2.81127 13.7498 2.91675C13.785 3.02222 13.8026 3.07496 13.8214 3.12175C14.0615 3.71915 14.6243 4.12477 15.267 4.1637C15.3173 4.16675 15.3766 4.16675 15.4952 4.16675C15.8028 4.16675 15.9568 4.16675 16.0797 4.17893C17.2654 4.29641 18.2035 5.23447 18.321 6.42026C18.3332 6.5432 18.3332 6.68916 18.3332 6.9811V13.5001C18.3332 14.9002 18.3332 15.6002 18.0607 16.1351C17.821 16.6055 17.4386 16.9879 16.9682 17.2276C16.4333 17.5001 15.7333 17.5001 14.3332 17.5001H5.6665C4.26637 17.5001 3.5663 17.5001 3.03153 17.2276C2.56112 16.9879 2.17867 16.6055 1.93899 16.1351C1.6665 15.6002 1.6665 14.9002 1.6665 13.5001V6.9811Z" stroke="#344054" stroke-width="2" stroke-linecap="round" stroke-linejoin="round"/>
<path d="M9.99984 13.7499C11.8408 13.7499 13.3332 12.2575 13.3332 10.4166C13.3332 8.57567 11.8408 7.08325 9.99984 7.08325C8.15889 7.08325 6.6665 8.57567 6.6665 10.4166C6.6665 12.2575 8.15889 13.7499 9.99984 13.7499Z" stroke="#344054" stroke-width="2" stroke-linecap="round" stroke-linejoin="round"/>
</svg>
