<svg width="16" height="15" viewBox="0 0 16 15" fill="none" xmlns="http://www.w3.org/2000/svg">
<path d="M11.8022 8.66667L7.13557 4.00003M13.8022 14H5.13561M7.09377 13.3752L12.8728 7.59607C13.6649 6.80407 14.0609 6.40805 14.2093 5.95139C14.3398 5.54971 14.3398 5.11701 14.2093 4.71532C14.0609 4.25867 13.6649 3.86265 12.8728 3.07061L12.7317 2.92943C11.9396 2.1374 11.5436 1.74138 11.087 1.59301C10.6853 1.46249 10.2526 1.46249 9.85091 1.59301C9.39424 1.74138 8.99824 2.1374 8.20617 2.92943L2.73168 8.40393C1.93965 9.196 1.54363 9.592 1.39525 10.0487C1.26473 10.4503 1.26473 10.8831 1.39525 11.2847C1.54363 11.7414 1.93965 12.1374 2.73168 12.9294L3.17743 13.3752C3.40803 13.6058 3.52333 13.7211 3.65789 13.8035C3.77719 13.8767 3.90725 13.9305 4.04329 13.9632C4.19675 14 4.35981 14 4.68593 14H5.58528C5.9114 14 6.07447 14 6.22791 13.9632C6.36396 13.9305 6.49404 13.8767 6.61331 13.8035C6.74791 13.7211 6.86317 13.6058 7.09377 13.3752Z" stroke="#344054" stroke-width="2" stroke-linecap="round" stroke-linejoin="round"/>
</svg>
