<svg width="20" height="22" viewBox="0 0 20 22" fill="none" xmlns="http://www.w3.org/2000/svg">
<path d="M12.4167 14.7697L12.4236 14.7653M11.7895 19.5238L16.9986 16.1843C17.7663 15.6922 18.1502 15.4461 18.3477 15.1087C18.5213 14.8119 18.5966 14.4677 18.5627 14.1256C18.5241 13.7366 18.278 13.3527 17.7858 12.5849L11.8099 3.26336C11.3178 2.49562 11.0717 2.11176 10.7343 1.91431C10.4375 1.74061 10.0933 1.66536 9.75117 1.69928C9.36217 1.73785 8.97827 1.98396 8.21054 2.47613L3.00142 5.81559C2.23369 6.30777 1.84982 6.55386 1.65237 6.89126C1.47868 7.18804 1.40341 7.53218 1.43735 7.87438C1.47593 8.26339 1.72202 8.64727 2.21419 9.41499L8.19007 18.7366C8.68224 19.5043 8.92835 19.8882 9.26574 20.0856C9.56251 20.2593 9.90668 20.3346 10.2489 20.3006C10.6379 20.2621 11.0217 20.016 11.7895 19.5238ZM12.7594 14.55C12.8807 14.7393 12.8257 14.9911 12.6364 15.1124C12.4472 15.2338 12.1953 15.1787 12.074 14.9894C11.9527 14.8002 12.0078 14.5483 12.197 14.427C12.3863 14.3057 12.6381 14.3608 12.7594 14.55Z" stroke="#344054" stroke-width="1.77636" stroke-linecap="round" stroke-linejoin="round"/>
</svg>
