<svg width="18" height="20" viewBox="0 0 18 20" fill="none" xmlns="http://www.w3.org/2000/svg">
<path d="M9.21045 3.33341V12.6667C9.21045 14.0669 9.21045 14.7669 9.48295 15.3017C9.72262 15.7722 10.105 16.1546 10.5754 16.3942C11.1103 16.6667 11.8103 16.6667 13.2104 16.6667H13.3771M13.3771 16.6667C13.3771 17.5872 14.1233 18.3334 15.0438 18.3334C15.9643 18.3334 16.7104 17.5872 16.7104 16.6667C16.7104 15.7462 15.9643 15.0001 15.0438 15.0001C14.1233 15.0001 13.3771 15.7462 13.3771 16.6667ZM5.04378 3.33341H13.3771M5.04378 3.33341C5.04378 4.25389 4.29759 5.00008 3.37712 5.00008C2.45664 5.00008 1.71045 4.25389 1.71045 3.33341C1.71045 2.41294 2.45664 1.66675 3.37712 1.66675C4.29759 1.66675 5.04378 2.41294 5.04378 3.33341ZM13.3771 3.33341C13.3771 4.25389 14.1233 5.00008 15.0438 5.00008C15.9643 5.00008 16.7104 4.25389 16.7104 3.33341C16.7104 2.41294 15.9643 1.66675 15.0438 1.66675C14.1233 1.66675 13.3771 2.41294 13.3771 3.33341ZM9.21045 10.0001H13.3771M13.3771 10.0001C13.3771 10.9206 14.1233 11.6667 15.0438 11.6667C15.9643 11.6667 16.7104 10.9206 16.7104 10.0001C16.7104 9.07958 15.9643 8.33341 15.0438 8.33341C14.1233 8.33341 13.3771 9.07958 13.3771 10.0001Z" stroke="#101828" stroke-width="2" stroke-linecap="round" stroke-linejoin="round"/>
</svg>
