<svg width="17" height="16" viewBox="0 0 17 16" fill="none" xmlns="http://www.w3.org/2000/svg">
<path d="M11.4882 14.8333H4.62257C4.17382 14.8333 3.94945 14.8333 3.84555 14.7446C3.7554 14.6676 3.70755 14.5521 3.71686 14.4339C3.72758 14.2977 3.88623 14.139 4.20355 13.8217L10.502 7.52326C10.7953 7.22993 10.9421 7.08318 11.1112 7.0283C11.2599 6.97993 11.4202 6.97993 11.569 7.0283C11.7381 7.08318 11.8848 7.22993 12.1782 7.52326L15.0438 10.3889V11.2778M11.4882 14.8333C12.7328 14.8333 13.355 14.8333 13.8304 14.5911C14.2486 14.3781 14.5885 14.0381 14.8016 13.62C15.0438 13.1446 15.0438 12.5224 15.0438 11.2778M11.4882 14.8333H5.266C4.02144 14.8333 3.39916 14.8333 2.9238 14.5911C2.50566 14.3781 2.16571 14.0381 1.95266 13.62C1.71045 13.1446 1.71045 12.5224 1.71045 11.2778V5.05556C1.71045 3.81099 1.71045 3.18871 1.95266 2.71336C2.16571 2.29521 2.50566 1.95526 2.9238 1.74221C3.39916 1.5 4.02144 1.5 5.266 1.5H11.4882C12.7328 1.5 13.355 1.5 13.8304 1.74221C14.2486 1.95526 14.5885 2.29521 14.8016 2.71336C15.0438 3.18871 15.0438 3.81099 15.0438 5.05556V11.2778M7.266 5.57407C7.266 6.39227 6.60272 7.05556 5.78452 7.05556C4.96632 7.05556 4.30304 6.39227 4.30304 5.57407C4.30304 4.75587 4.96632 4.09259 5.78452 4.09259C6.60272 4.09259 7.266 4.75587 7.266 5.57407Z" stroke="#344054" stroke-width="2" stroke-linecap="round" stroke-linejoin="round"/>
</svg>
