<svg width="84" height="16" viewBox="0 0 84 16" fill="none" xmlns="http://www.w3.org/2000/svg">
<path d="M14.0791 3.26281V0.727295H26.0251V3.26281H21.572V15.2727H18.5322V3.26281H14.0791Z" fill="white"/>
<path d="M27.9925 15.2727V0.727295H31.0677V6.72872H37.3106V0.727295H40.3788V15.2727H37.3106V9.26423H31.0677V15.2727H27.9925Z" fill="white"/>
<path d="M42.9143 15.2727V0.727295H52.7155V3.26281H45.9896V6.72872H52.2112V9.26423H45.9896V12.7372H52.7439V15.2727H42.9143Z" fill="white"/>
<path d="M67.3266 0.727295V15.2727H64.6704L58.3422 6.11792H58.2357V15.2727H55.1604V0.727295H57.8593L64.1377 9.87502H64.2655V0.727295H67.3266Z" fill="white"/>
<path fill-rule="evenodd" clip-rule="evenodd" d="M11.2416 15.259L6.9864 5.89762L2.73125 15.259L0.000148773 14.0176L5.62085 1.652C5.86426 1.11651 6.39819 0.772705 6.9864 0.772705C7.57462 0.772705 8.10855 1.11651 8.35195 1.652L13.9727 14.0176L11.2416 15.259Z" fill="white"/>
<path fill-rule="evenodd" clip-rule="evenodd" d="M81.2416 15.259L76.9864 5.89762L72.7312 15.259L70.0001 14.0176L75.6209 1.652C75.8643 1.11651 76.3982 0.772705 76.9864 0.772705C77.5746 0.772705 78.1085 1.11651 78.352 1.652L83.9727 14.0176L81.2416 15.259Z" fill="white"/>
</svg>
