<svg width="19" height="18" viewBox="0 0 19 18" fill="none" xmlns="http://www.w3.org/2000/svg">
<path d="M0.833496 2.33337V7.33337M0.833496 7.33337H5.8335M0.833496 7.33337L4.70016 3.70004C5.85092 2.55122 7.34387 1.80751 8.95406 1.58097C10.5642 1.35442 12.2044 1.65732 13.6275 2.44401C15.0506 3.2307 16.1795 4.45857 16.844 5.94262C17.5086 7.42667 17.6728 9.08649 17.312 10.672C16.9512 12.2575 16.0849 13.6828 14.8436 14.7332C13.6023 15.7835 12.0533 16.402 10.4299 16.4954C8.80657 16.5889 7.19681 16.1522 5.84321 15.2512C4.48961 14.3502 3.46549 13.0337 2.92516 11.5" stroke="#344054" stroke-width="2" stroke-linecap="round" stroke-linejoin="round"/>
</svg>
