<svg width="16" height="15" viewBox="0 0 16 15" fill="none" xmlns="http://www.w3.org/2000/svg">
<path d="M1.07446 1.66655V5.66655M1.07446 5.66655H5.07446M1.07446 5.66655L4.1678 2.75988C5.0884 1.84083 6.28276 1.24586 7.57091 1.06463C8.85907 0.883393 10.1712 1.12571 11.3097 1.75506C12.4481 2.38441 13.3512 3.36671 13.8829 4.55395C14.4145 5.74119 14.5459 7.06905 14.2573 8.33746C13.9686 9.60587 13.2756 10.7461 12.2825 11.5864C11.2895 12.4267 10.0503 12.9215 8.75161 12.9962C7.45292 13.0709 6.16511 12.7216 5.08223 12.0008C3.99935 11.28 3.18006 10.2268 2.7478 8.99989" stroke="#344054" stroke-width="2" stroke-linecap="round" stroke-linejoin="round"/>
</svg>
