<svg width="16" height="16" viewBox="0 0 16 16" fill="none" xmlns="http://www.w3.org/2000/svg">
<path d="M5.80241 2.33325V1.33325M3.17618 3.37369L2.46908 2.66659M3.17618 8.66659L2.46908 9.37372M8.46908 3.37369L9.17621 2.66659M2.13574 5.99992H1.13574M10.3787 10.793L8.71754 13.8779C8.52781 14.2304 8.43288 14.4066 8.31874 14.4512C8.21968 14.4899 8.10808 14.4789 8.01841 14.4218C7.91501 14.3559 7.85614 14.1647 7.73828 13.7821L5.43254 6.29675C5.33628 5.98426 5.28814 5.82801 5.32687 5.72247C5.3606 5.63055 5.43304 5.55811 5.52496 5.52439C5.6305 5.48566 5.78674 5.53379 6.09924 5.63005L13.5845 7.93579C13.9671 8.05365 14.1583 8.11259 14.2242 8.21592C14.2814 8.30565 14.2923 8.41719 14.2536 8.51625C14.2091 8.63045 14.0328 8.72532 13.6804 8.91512L10.5955 10.5763C10.5431 10.6045 10.5169 10.6185 10.494 10.6367C10.4736 10.6527 10.4552 10.6711 10.4391 10.6915C10.421 10.7144 10.4069 10.7406 10.3787 10.793Z" stroke="#344054" stroke-width="2" stroke-linecap="round" stroke-linejoin="round"/>
</svg>
