<svg width="16" height="18" viewBox="0 0 16 18" fill="none" xmlns="http://www.w3.org/2000/svg">
<path d="M3.8335 7.33333V5.66667C3.8335 3.36548 5.69898 1.5 8.00016 1.5C9.70875 1.5 11.1772 2.52842 11.8202 4M8.00016 11.0833V12.75M5.3335 16.5H10.6668C12.067 16.5 12.767 16.5 13.3018 16.2275C13.7722 15.9878 14.1547 15.6054 14.3943 15.135C14.6668 14.6002 14.6668 13.9002 14.6668 12.5V11.3333C14.6668 9.93317 14.6668 9.23317 14.3943 8.69833C14.1547 8.22792 13.7722 7.8455 13.3018 7.60583C12.767 7.33333 12.067 7.33333 10.6668 7.33333H5.3335C3.93336 7.33333 3.2333 7.33333 2.69852 7.60583C2.22811 7.8455 1.84566 8.22792 1.60598 8.69833C1.3335 9.23317 1.3335 9.93317 1.3335 11.3333V12.5C1.3335 13.9002 1.3335 14.6002 1.60598 15.135C1.84566 15.6054 2.22811 15.9878 2.69852 16.2275C3.2333 16.5 3.93336 16.5 5.3335 16.5Z" stroke="#344054" stroke-width="2" stroke-linecap="round" stroke-linejoin="round"/>
</svg>
