<svg width="56" height="15" viewBox="0 0 56 15" fill="none" xmlns="http://www.w3.org/2000/svg">
<path d="M52.4238 4.3821C52.367 3.80919 52.1232 3.36411 51.6923 3.04688C51.2614 2.72964 50.6767 2.57102 49.938 2.57102C49.4361 2.57102 49.0124 2.64205 48.6667 2.78409C48.3211 2.9214 48.0559 3.11316 47.8713 3.35938C47.6913 3.60559 47.6014 3.88494 47.6014 4.19744C47.5919 4.45786 47.6464 4.68513 47.7647 4.87926C47.8878 5.07339 48.0559 5.24148 48.269 5.38352C48.4821 5.52083 48.7283 5.64157 49.0076 5.74574C49.287 5.84517 49.5853 5.9304 49.9025 6.00142L51.2093 6.31392C51.8438 6.45597 52.4262 6.64536 52.9565 6.8821C53.4868 7.11885 53.9461 7.41004 54.3343 7.75568C54.7226 8.10133 55.0233 8.50852 55.2363 8.97727C55.4541 9.44602 55.5654 9.98343 55.5701 10.5895C55.5654 11.4796 55.3381 12.2514 54.8883 12.9048C54.4432 13.5535 53.7993 14.0578 52.9565 14.4176C52.1184 14.7727 51.1075 14.9503 49.9238 14.9503C48.7496 14.9503 47.7269 14.7704 46.8556 14.4105C45.9892 14.0507 45.3121 13.518 44.8244 12.8125C44.3414 12.1023 44.0881 11.224 44.0645 10.1776H47.0403C47.0734 10.6652 47.2131 11.0724 47.4593 11.3991C47.7103 11.7211 48.0441 11.965 48.4608 12.1307C48.8822 12.2917 49.358 12.3722 49.8883 12.3722C50.4092 12.3722 50.8613 12.2964 51.2449 12.1449C51.6331 11.9934 51.9338 11.7827 52.1468 11.5128C52.3599 11.2429 52.4664 10.9328 52.4664 10.5824C52.4664 10.2557 52.3694 9.98106 52.1752 9.75852C51.9859 9.53599 51.7065 9.34659 51.3372 9.19034C50.9726 9.03409 50.5252 8.89205 49.9949 8.7642L48.411 8.36648C47.1847 8.06818 46.2164 7.6018 45.5062 6.96733C44.796 6.33286 44.4432 5.47822 44.448 4.40341C44.4432 3.52273 44.6776 2.75331 45.1511 2.09517C45.6293 1.43703 46.2851 0.923296 47.1184 0.553978C47.9518 0.18466 48.8987 0 49.9593 0C51.0389 0 51.9811 0.18466 52.786 0.553978C53.5957 0.923296 54.2254 1.43703 54.6752 2.09517C55.1251 2.75331 55.3571 3.51563 55.3713 4.3821H52.4238Z" fill="#28CE77"/>
<path d="M35.1387 14.7444H29.9824V0.198975H35.1813C36.6444 0.198975 37.9038 0.490168 38.9597 1.07255C40.0156 1.65021 40.8276 2.48117 41.3958 3.56545C41.9687 4.64973 42.2552 5.94708 42.2552 7.4575C42.2552 8.97265 41.9687 10.2747 41.3958 11.3637C40.8276 12.4528 40.0108 13.2885 38.9455 13.8709C37.8849 14.4532 36.6159 14.7444 35.1387 14.7444ZM33.0577 12.1095H35.0108C35.9199 12.1095 36.6846 11.9485 37.3049 11.6265C37.9299 11.2998 38.3986 10.7956 38.7111 10.1137C39.0283 9.42719 39.187 8.54178 39.187 7.4575C39.187 6.38269 39.0283 5.50437 38.7111 4.82255C38.3986 4.14074 37.9322 3.63884 37.312 3.31687C36.6917 2.9949 35.927 2.83392 35.0179 2.83392H33.0577V12.1095Z" fill="#28CE77"/>
<path d="M17.5284 14.7444H14.2329L19.2542 0.198975H23.2173L28.2315 14.7444H24.936L21.2926 3.52284H21.1789L17.5284 14.7444ZM17.3224 9.0271H25.1065V11.4277H17.3224V9.0271Z" fill="#28CE77"/>
<path d="M9.90057 4.90057C9.80114 4.55492 9.66146 4.24953 9.48153 3.98438C9.30161 3.71449 9.08144 3.48722 8.82102 3.30256C8.56534 3.11316 8.27178 2.96875 7.94034 2.86932C7.61364 2.76989 7.25142 2.72017 6.85369 2.72017C6.11032 2.72017 5.45691 2.90483 4.89347 3.27415C4.33475 3.64347 3.89915 4.18087 3.58665 4.88636C3.27415 5.58712 3.1179 6.44413 3.1179 7.45739C3.1179 8.47064 3.27178 9.33239 3.57955 10.0426C3.88731 10.7528 4.32292 11.295 4.88636 11.669C5.44981 12.0384 6.11506 12.223 6.8821 12.223C7.57812 12.223 8.17235 12.0999 8.66477 11.8537C9.16193 11.6027 9.54072 11.25 9.80114 10.7955C10.0663 10.3409 10.1989 9.8035 10.1989 9.18324L10.8239 9.27557H7.07386V6.96023H13.1605V8.79261C13.1605 10.071 12.8906 11.1695 12.3509 12.0881C11.8111 13.0019 11.0677 13.7074 10.1207 14.2045C9.17377 14.697 8.08949 14.9432 6.8679 14.9432C5.50426 14.9432 4.30634 14.6425 3.27415 14.0412C2.24195 13.4351 1.43703 12.5758 0.859375 11.4631C0.286458 10.3456 0 9.01989 0 7.4858C0 6.30682 0.170455 5.25568 0.511364 4.33239C0.857008 3.40436 1.33996 2.61837 1.96023 1.97443C2.58049 1.33049 3.30256 0.840436 4.12642 0.504261C4.95028 0.168087 5.8428 0 6.80398 0C7.62784 0 8.39489 0.120739 9.10511 0.362216C9.81534 0.598959 10.4451 0.935133 10.9943 1.37074C11.5483 1.80634 12.0005 2.32481 12.3509 2.92614C12.7012 3.52273 12.9261 4.18087 13.0256 4.90057H9.90057Z" fill="#28CE77"/>
</svg>
