<svg class="platform-discord-style-gray-state-hover platform-discord-style-brand-state-default" fill="none" height="24" viewBox="0 0 24 24" width="24" xmlns="http://www.w3.org/2000/svg"><path class="path" d="M9.88806 10.068C9.20406 10.068 8.66406 10.668 8.66406 11.4C8.66406 12.132 9.21606 12.732 9.88806 12.732C10.5721 12.732 11.1121 12.132 11.1121 11.4C11.1241 10.668 10.5721 10.068 9.88806 10.068ZM14.2681 10.068C13.5841 10.068 13.0441 10.668 13.0441 11.4C13.0441 12.132 13.5961 12.732 14.2681 12.732C14.9521 12.732 15.4921 12.132 15.4921 11.4C15.4921 10.668 14.9521 10.068 14.2681 10.068Z" fill="#94969C"></path><path class="path" d="M20.1001 0H4.02006C2.66406 0 1.56006 1.104 1.56006 2.472V18.696C1.56006 20.064 2.66406 21.168 4.02006 21.168H17.6281L16.9921 18.948L18.5281 20.376L19.9801 21.72L22.5601 24V2.472C22.5601 1.104 21.4561 0 20.1001 0ZM15.4681 15.672C15.4681 15.672 15.0361 15.156 14.6761 14.7C16.2481 14.256 16.8481 13.272 16.8481 13.272C16.3561 13.596 15.8881 13.824 15.4681 13.98C14.8681 14.232 14.2921 14.4 13.7281 14.496C12.5761 14.712 11.5201 14.652 10.6201 14.484C9.93606 14.352 9.34806 14.16 8.85606 13.968C8.58006 13.86 8.28006 13.728 7.98006 13.56C7.94406 13.536 7.90806 13.524 7.87206 13.5C7.84806 13.488 7.83606 13.476 7.82406 13.464C7.60806 13.344 7.48806 13.26 7.48806 13.26C7.48806 13.26 8.06406 14.22 9.58806 14.676C9.22806 15.132 8.78406 15.672 8.78406 15.672C6.13206 15.588 5.12406 13.848 5.12406 13.848C5.12406 9.984 6.85206 6.852 6.85206 6.852C8.58006 5.556 10.2241 5.592 10.2241 5.592L10.3441 5.736C8.18406 6.36 7.18806 7.308 7.18806 7.308C7.18806 7.308 7.45206 7.164 7.89606 6.96C9.18006 6.396 10.2001 6.24 10.6201 6.204C10.6921 6.192 10.7521 6.18 10.8241 6.18C11.5561 6.084 12.3841 6.06 13.2481 6.156C14.3881 6.288 15.6121 6.624 16.8601 7.308C16.8601 7.308 15.9121 6.408 13.8721 5.784L14.0401 5.592C14.0401 5.592 15.6841 5.556 17.4121 6.852C17.4121 6.852 19.1401 9.984 19.1401 13.848C19.1401 13.848 18.1201 15.588 15.4681 15.672Z" fill="#94969C"></path></svg>