<svg width="156" height="123" viewBox="0 0 156 123" fill="none" xmlns="http://www.w3.org/2000/svg">
<path d="M132.664 15.4679V25.7952C132.664 28.9255 135.202 31.4632 138.332 31.4632H139.352C141.919 31.4632 144 33.5441 144 36.1111C144 38.6735 141.909 40.7477 139.347 40.7977C90.4678 41.7513 78.022 56.0465 75.4883 86.1745C74.9387 92.7104 69.6875 98 63.1285 98H21C14.3726 98 9 92.6274 9 86V63.1429C9 57.8167 12.5108 53.1278 17.6216 51.6283L30.2639 47.9191C35.3747 46.4195 38.8855 41.7307 38.8855 36.4044V20.6264C38.8855 17.7806 41.1924 15.4737 44.0382 15.4737C46.8839 15.4737 49.1908 17.7806 49.1908 20.6264V31.9828C49.1908 37.2044 54.1193 41.0216 59.1751 39.7155C62.7009 38.8047 65.1641 35.6243 65.1641 31.9828V14.695C65.1641 11.9916 62.9725 9.8 60.2691 9.8C57.5656 9.8 55.374 7.60594 55.374 4.90248C55.374 2.19629 57.5678 0 60.274 0H139.1C141.806 0 144 2.1938 144 4.9C144 7.60619 141.806 9.8 139.1 9.8H138.332C135.202 9.8 132.664 12.3376 132.664 15.4679Z" fill="#105AE1"/>
<circle cx="35.5" cy="35.5" r="35.5" transform="matrix(-1 0 0 1 156 52)" fill="#105AE1"/>
<ellipse cx="25" cy="24.5" rx="25" ry="24.5" transform="matrix(-1 0 0 1 50 74)" fill="#105AE1"/>
</svg>
