<svg xmlns="http://www.w3.org/2000/svg" version="1.1" xmlns:xlink="http://www.w3.org/1999/xlink" width="512" height="512" x="0" y="0" viewBox="0 0 299.35 299.35" style="enable-background:new 0 0 512 512" xml:space="preserve" class=""><g><path d="M125.707 28.43a4.999 4.999 0 0 0-4.193-.999L38.62 45.247a5 5 0 0 0-3.949 4.888v83.487a5 5 0 0 0 5 5h82.894a5 5 0 0 0 5-5V32.32a5.005 5.005 0 0 0-1.858-3.89zM259.679 160.728h-105a5 5 0 0 0-5 5v106.055a5 5 0 0 0 3.949 4.888l105 22.567a4.993 4.993 0 0 0 4.194-.999 4.999 4.999 0 0 0 1.857-3.889V165.728a5 5 0 0 0-5-5zM262.822 1.111a4.998 4.998 0 0 0-4.193-.999l-105 22.567a5 5 0 0 0-3.949 4.888v106.055a5 5 0 0 0 5 5h105a5 5 0 0 0 5-5V5a5.003 5.003 0 0 0-1.858-3.889zM122.564 160.728H39.671a5 5 0 0 0-5 5v83.487a5 5 0 0 0 3.949 4.888l82.894 17.816a5.001 5.001 0 0 0 6.051-4.888V165.728a5.001 5.001 0 0 0-5.001-5z" fill="#344054" opacity="1" data-original="#000000" class=""></path></g></svg>