<svg width="14" height="18" viewBox="0 0 14 18" fill="none" xmlns="http://www.w3.org/2000/svg">
<path d="M11.6933 9.5469C11.7105 8.20615 12.4131 6.96792 13.5553 6.266C12.8319 5.23211 11.6625 4.60045 10.4013 4.56102C9.07415 4.42192 7.78789 5.35471 7.11178 5.35471C6.42276 5.35471 5.3817 4.57464 4.26034 4.59758C2.78551 4.64562 1.44332 5.4637 0.725625 6.75354C-0.802262 9.39921 0.337021 13.2881 1.8011 15.4269C2.53385 16.4744 3.38921 17.6438 4.50985 17.6029C5.60612 17.5577 6.01551 16.9038 7.33834 16.9038C8.64898 16.9038 9.03329 17.6029 10.1762 17.5764C11.352 17.557 12.0934 16.5246 12.8003 15.467C13.3266 14.7206 13.7317 13.8961 13.9998 13.0235C12.6031 12.4328 11.6947 11.064 11.6933 9.5469Z" fill="white"/>
<path d="M9.53417 3.15422C10.1752 2.38418 10.4913 1.39475 10.4146 0.395996C9.43523 0.499241 8.52968 0.96743 7.8801 1.70735C7.2384 2.43796 6.91289 3.39298 6.97598 4.36377C7.969 4.37381 8.91183 3.92785 9.53417 3.15422Z" fill="white"/>
</svg>
